<?xml version="1.0" encoding="UTF-8" standalone="no"?>
<!-- Created with Inkscape (http://www.inkscape.org/) -->

<svg
   xmlns:dc="http://purl.org/dc/elements/1.1/"
   xmlns:cc="http://creativecommons.org/ns#"
   xmlns:rdf="http://www.w3.org/1999/02/22-rdf-syntax-ns#"
   xmlns:svg="http://www.w3.org/2000/svg"
   xmlns="http://www.w3.org/2000/svg"
   xmlns:sodipodi="http://sodipodi.sourceforge.net/DTD/sodipodi-0.dtd"
   xmlns:inkscape="http://www.inkscape.org/namespaces/inkscape"
   id="svg2"
   version="1.1"
   inkscape:version="0.91 r13725"
   xml:space="preserve"
   width="757.8125"
   height="320.02869"
   viewBox="0 0 757.81252 320.02868"
   sodipodi:docname="logo4.svg"><metadata
     id="metadata8"><rdf:RDF><cc:Work
         rdf:about=""><dc:format>image/svg+xml</dc:format><dc:type
           rdf:resource="http://purl.org/dc/dcmitype/StillImage" /><dc:title></dc:title></cc:Work></rdf:RDF></metadata><defs
     id="defs6"><clipPath
       clipPathUnits="userSpaceOnUse"
       id="clipPath18"><path
         d="m 0,1024.081 1212.5,0 0,-512.039 -1212.5,0 0,512.039 z"
         id="path20"
         inkscape:connector-curvature="0" /></clipPath><linearGradient
       x1="23560.938"
       y1="2981.3735"
       x2="23560.938"
       y2="2438.1978"
       gradientUnits="userSpaceOnUse"
       gradientTransform="matrix(0.8,0,0,-0.8,-18242.5,2897.1396)"
       spreadMethod="pad"
       id="linearGradient24"><stop
         style="stop-opacity:1;stop-color:#dddddd"
         offset="0"
         id="stop26" /><stop
         style="stop-opacity:1;stop-color:#ffffff"
         offset="1"
         id="stop28" /></linearGradient></defs><sodipodi:namedview
     pagecolor="#ffffff"
     bordercolor="#666666"
     borderopacity="1"
     objecttolerance="10"
     gridtolerance="10"
     guidetolerance="10"
     inkscape:pageopacity="0"
     inkscape:pageshadow="2"
     inkscape:window-width="1366"
     inkscape:window-height="723"
     id="namedview4"
     showgrid="false"
     inkscape:zoom="0.26072489"
     inkscape:cx="373.11127"
     inkscape:cy="421.45309"
     inkscape:window-x="0"
     inkscape:window-y="22"
     inkscape:window-maximized="0"
     inkscape:current-layer="g10"
     fit-margin-top="0"
     fit-margin-left="0"
     fit-margin-right="0"
     fit-margin-bottom="0" /><g
     id="g10"
     inkscape:groupmode="layer"
     inkscape:label="notcurses"
     transform="matrix(1.25,0,0,-1.25,-402.95777,797.35294)"><g
       id="g14" /><g
       id="g8413"
       transform="translate(-395.8195,-529.47934)"><path
         d="m 718.18575,1167.3602 606.24995,0 0,-256.02 -606.24995,0 0,256.02 z"
         style="fill:#ffdac1;fill-opacity:1;fill-rule:nonzero;stroke:none"
         id="path62"
         inkscape:connector-curvature="0" /><path
         d="m 1138.9708,1066.1922 c -5.7111,0 -10.492,-1.391 -13.98,-3.836 l -4.4891,0 c -0.9489,-0.668 -1.824,-1.391 -2.566,-2.211 l -4.2109,0 c -0.6211,-0.684 -1.164,-1.422 -1.6291,-2.207 l 5.524,0 c -0.8789,-1.488 -1.4689,-3.152 -1.7349,-4.973 l -7.394,0 c -0.528,1.856 -1.3211,3.516 -2.3791,4.973 l -5.524,0 c -0.586,0.805 -1.265,1.531 -2.0069,2.207 l 4.21,0 c -0.9171,0.836 -1.9451,1.574 -3.0931,2.211 l 4.488,0 c -3.3949,1.879 -7.77,2.875 -13.0429,2.875 l -22.5391,0 0,-2.875 -4.488,0 0,-2.211 -4.211,0 0,-2.207 5.523,0 0,-4.973 -7.472,0 0,4.973 -5.524,0 0,2.207 4.2111,0 0,2.211 4.4879,0 0,2.875 -11.7179,0 0,-2.875 -4.4851,0 0,-2.211 -4.2109,0 0,-2.207 5.52,0 0,-4.973 -8.074,0 0,-5.523 5.1049,0 0,-12.688 c 0,-0.585 -0.074,-1.121 -0.1249,-1.668 l 4.902,0 c -0.054,-0.574 -0.1291,-1.128 -0.2381,-1.656 l -4.902,0 c -0.4099,-1.976 -1.192,-3.64 -2.289,-4.972 l 4.7691,0 c -1.9611,-2.383 -4.898,-3.715 -8.5431,-3.715 -3.7069,0 -6.734,1.343 -8.777,3.715 l -4.7699,0 c -1.1481,1.336 -1.968,3.003 -2.402,4.972 l 4.902,0 c -0.1171,0.528 -0.1951,1.082 -0.254,1.656 l -4.9021,0 c -0.055,0.547 -0.133,1.083 -0.133,1.668 l 0,12.688 -5.109,0 0,5.523 8.0781,0 0,4.973 -5.5231,0 0,2.207 4.2111,0 0,2.211 4.488,0 0,2.875 -11.7151,0 0,-2.875 -4.488,0 0,-2.211 -4.2109,0 0,-2.207 -4.3711,0 c -0.809,0.785 -1.676,1.52 -2.58997,2.207 l 4.21107,0 c -1.0711,0.805 -2.192,1.555 -3.3791,2.211 l 4.488,0 c -4.254,2.34 -9.14397,3.688 -13.88997,3.688 -5.336,0 -10.2189,-1.348 -14.364,-3.688 l -4.484,0 c -1.18,-0.664 -2.3089,-1.391 -3.36,-2.211 l -4.21,0 c -0.868,-0.68 -1.676,-1.426 -2.45,-2.207 l 5.524,0 c -1.473,-1.492 -2.758,-3.16 -3.828,-4.973 l -8.078,0 c -1.02,-1.722 -1.864,-3.558 -2.469,-5.523 l 5.109,0 c -0.777,-2.512 -1.191,-5.199 -1.191,-8.016 0,-2.203 0.265,-4.316 0.73,-6.34 l 4.903,0 c 0.1251,-0.558 0.25,-1.117 0.41,-1.656 l -4.903,0 c 0.516,-1.746 1.196,-3.41 2.028,-4.972 l 4.769,0 c 1.328,-2.489 3.0551,-4.711 5.082,-6.625 l -3.1129,0 c 0.84,-0.797 1.742,-1.532 2.6869,-2.211 l -2.0069,0 c 4.484,-3.223 10.0659,-5.114 16.2729,-5.114 5.457,0 11.098,1.914 15.883,5.114 l 2.00797,0 c 1.023,0.683 2.023,1.41 2.957,2.211 l 3.1131,0 c 0.75,0.636 1.4649,1.312 2.1449,2.019 l -4.239,4.606 -4.773,0 -2.65197,2.882 c -1.0709,-1.089 -2.27,-2.046 -3.528,-2.882 l 4.77,0 c -3.106,-2.055 -6.6449,-3.27 -9.9689,-3.27 -3.6211,0 -6.8751,1.234 -9.504,3.27 l -4.7731,0 c -1.7189,1.332 -3.1329,3.019 -4.192,4.972 l 4.9031,0 c -0.2971,0.543 -0.622,1.071 -0.856,1.656 l -4.898,0 c -0.8011,1.981 -1.2431,4.168 -1.2431,6.489 0,2.902 0.75,5.547 1.9691,7.867 l -5.1051,0 c 1.16,2.211 2.758,4.117 4.758,5.523 l 8.074,0 c 2.5471,1.797 5.652,2.848 9.066,2.848 3.0311,0 6.184,-1.031 8.988,-2.848 l 7.01597,0 0,-5.523 5.1091,0 0,-12.688 c 0,-0.57 0.036,-1.117 0.067,-1.668 l 4.902,0 c 0.031,-0.562 0.078,-1.117 0.141,-1.656 l -4.903,0 c 0.208,-1.765 0.5749,-3.426 1.094,-4.972 l 4.77,0 c 0.847,-2.516 2.086,-4.743 3.707,-6.625 l -3.113,0 c 0.687,-0.805 1.453,-1.532 2.269,-2.211 l -2.008,0 c 3.961,-3.289 9.379,-5.114 15.93,-5.114 6.519,0 11.887,1.825 15.805,5.114 l 2.007,0 c 0.809,0.679 1.563,1.406 2.243,2.211 l 3.113,0 c 1.601,1.882 2.824,4.109 3.656,6.625 l -4.769,0 c 0.515,1.546 0.879,3.207 1.078,4.972 l 4.902,0 c 0.059,0.539 0.106,1.094 0.137,1.656 l -4.899,0 c 0.032,0.551 0.067,1.098 0.067,1.668 l 0,12.688 -5.11,0 0,5.523 7.4729,0 0,-5.523 5.1091,0 0,-14.356 4.8989,0 0,-1.656 -4.8989,0 0,-4.972 4.77,0 0,-6.625 -3.1131,0 0,-2.211 -2.008,0 0,-4.297 11.7151,0 0,4.297 2.008,0 0,2.211 3.1129,0 0,6.625 -4.77,0 0,1.695 11.938,0 0.9411,-1.695 4.77,0 3.6789,-6.625 -3.1129,0 1.2269,-2.211 -2.012,0 2.3871,-4.297 13.2729,0 -2.7729,4.297 2.0109,0 -1.4249,2.211 3.1129,0 -4.274,6.625 -4.7729,0 -2.574,3.996 c 0.6169,0.289 1.1829,0.629 1.746,0.976 l 4.902,0 c 0.8169,0.5 1.586,1.043 2.2849,1.656 l -4.902,0 c 3.707,3.254 5.68,8.043 5.68,14.125 0,0.079 -0.01,0.153 -0.01,0.231 l -5.1089,0 c -0.016,1.996 -0.27,3.84 -0.75,5.523 l 7.3939,0 c -0.105,-0.734 -0.183,-1.484 -0.183,-2.269 0,-1.18 0.1131,-2.258 0.32,-3.254 l 5.1091,0 c 2.2309,-10.738 15.688,-11.258 22.852,-14.356 l 4.9019,0 c 1.0861,-0.472 1.9841,-1.023 2.719,-1.656 l -4.902,0 c 1.078,-0.929 1.7691,-2.054 1.7691,-3.574 0,-0.504 -0.09,-0.961 -0.2191,-1.398 l 4.77,0 c -0.7229,-2.442 -3.4029,-3.789 -7.492,-3.789 -3.704,0 -8.344,1.406 -12.618,3.789 l -4.7689,0 c -2.0591,1.148 -4.0391,2.503 -5.774,4.07 l -1.988,-4.07 4.7699,0 -2.684,-5.497 c 0.461,-0.394 0.961,-0.757 1.453,-1.128 l -3.1129,0 c 1.0309,-0.786 2.1129,-1.536 3.266,-2.211 l -2.008,0 c 5.2969,-3.094 11.742,-4.965 18.1909,-4.965 6.36,0 11.895,1.711 15.578,4.965 l 2.008,0 c 0.758,0.668 1.426,1.41 2.016,2.211 l 3.1131,0 c 1.3829,1.863 2.2929,4.074 2.602,6.625 l -4.77,0 c 0.078,0.644 0.1249,1.308 0.1249,1.992 0,1.078 -0.1049,2.054 -0.2729,2.98 l 4.902,0 c -0.1051,0.594 -0.2851,1.117 -0.4571,1.656 l -4.898,0 c -3.286,10.454 -17.879,10.555 -24.071,14.356 l -5.105,0 c -1.7069,1.051 -2.793,2.375 -2.793,4.293 0,0.449 0.086,0.851 0.211,1.23 l 8.078,0 c 0.672,2.075 3.07,3.145 6.39,3.145 3.133,0 7.622,-1.149 11.993,-3.145 l 5.191,0 2.316,4.973 -5.523,0 1.031,2.207 4.211,0 0.156,0.34 c -1.027,0.676 -2.156,1.289 -3.332,1.871 l 4.489,0 c -4.758,2.344 -10.567,3.836 -16.395,3.836 z m 93.6169,0 c -5.7109,0 -10.488,-1.391 -13.976,-3.836 l -4.488,0 c -0.95,-0.668 -1.8289,-1.391 -2.5709,-2.211 l -4.2111,0 c -0.6209,-0.684 -1.16,-1.422 -1.6249,-2.207 l 5.524,0 c -0.8791,-1.488 -1.4691,-3.152 -1.7391,-4.973 l -8.074,0 c -0.1089,-0.734 -0.1829,-1.484 -0.1829,-2.269 0,-1.18 0.1129,-2.258 0.32,-3.254 l 5.1049,0 c 2.2311,-10.738 15.688,-11.258 22.852,-14.356 l 4.902,0 c 1.086,-0.472 1.9851,-1.023 2.7191,-1.656 l -4.902,0 c 1.078,-0.929 1.7689,-2.054 1.7689,-3.574 0,-0.504 -0.086,-0.961 -0.2149,-1.398 l 4.77,0 c -0.7271,-2.442 -3.406,-3.789 -7.496,-3.789 -3.7031,0 -8.344,1.406 -12.6131,3.789 l -4.77,0 c -2.0589,1.148 -4.0429,2.503 -5.7769,4.07 l -1.9891,-4.07 4.77,0 -2.684,-5.497 c 0.4611,-0.394 0.9651,-0.757 1.4531,-1.128 l -3.1131,0 c 1.0351,-0.786 2.1131,-1.536 3.27,-2.211 l -2.008,0 c 5.2931,-3.094 11.738,-4.965 18.1911,-4.965 6.36,0 11.8909,1.711 15.5749,4.965 l 2.0071,0 c 0.7579,0.668 1.43,1.41 2.02,2.211 l 3.1129,0 c 1.3791,1.863 2.293,4.074 2.598,6.625 l -4.77,0 c 0.078,0.644 0.1251,1.308 0.1251,1.992 0,1.078 -0.1051,2.054 -0.2691,2.98 l 4.898,0 c -0.1049,0.594 -0.2849,1.117 -0.4529,1.656 l -4.902,0 c -3.2851,10.454 -17.8791,10.555 -24.0671,14.356 l -5.1089,0 c -1.7071,1.051 -2.7891,2.375 -2.7891,4.293 0,0.449 0.086,0.851 0.2071,1.23 l 8.078,0 c 0.672,2.075 3.07,3.145 6.3909,3.145 3.136,0 7.6211,-1.149 11.996,-3.145 l 5.191,0 2.313,4.973 -5.52,0 1.0271,2.207 4.2109,0 0.1571,0.34 c -1.028,0.676 -2.1571,1.289 -3.3291,1.871 l 4.4851,0 c -4.758,2.344 -10.5671,3.836 -16.3951,3.836 z m -340.61297,-0.148 c -5.394,0 -10.328,-1.344 -14.512,-3.688 l -4.488,0 c -1.184,-0.664 -2.324,-1.387 -3.379,-2.211 l -4.211,0 c -0.875,-0.68 -1.687,-1.426 -2.461,-2.207 l 5.524,0 c -1.485,-1.492 -2.774,-3.156 -3.848,-4.973 l -8.078,0 c -1.024,-1.718 -1.871,-3.558 -2.477,-5.523 l 5.11,0 c -0.785,-2.527 -1.203,-5.242 -1.203,-8.09 0,-2.176 0.269,-4.266 0.734,-6.266 l 4.898,0 c 0.129,-0.558 0.262,-1.117 0.422,-1.656 l -4.898,0 c 0.523,-1.746 1.215,-3.41 2.066,-4.972 l 4.77,0 c 1.355,-2.489 3.117,-4.711 5.191,-6.625 l -3.113,0 c 0.863,-0.797 1.789,-1.532 2.762,-2.211 l -2.008,0 c 4.601,-3.223 10.332,-5.114 16.703,-5.114 6.363,0 12.082,1.895 16.676,5.114 l 2.008,0 c 0.972,0.679 1.898,1.414 2.761,2.211 l 3.114,0 c 2.078,1.914 3.847,4.136 5.207,6.625 l -4.77,0 c 0.856,1.562 1.551,3.226 2.074,4.972 l 4.903,0 c 0.164,0.539 0.293,1.098 0.425,1.656 l -4.902,0 c 0.465,2.004 0.738,4.09 0.738,6.266 0,2.844 -0.422,5.559 -1.211,8.09 l -5.105,0 c -0.613,1.965 -1.465,3.801 -2.492,5.523 l 8.078,0 c -1.082,1.813 -2.371,3.481 -3.856,4.973 l -5.523,0 c -0.777,0.781 -1.59,1.527 -2.465,2.207 l 4.211,0 c -1.055,0.82 -2.195,1.547 -3.379,2.211 l 4.488,0 c -4.179,2.34 -9.101,3.688 -14.484,3.688 z m -79.414,-0.813 0,-2.875 -4.484,0 0,-2.211 -4.211,0 0,-2.207 5.519,0 0,-4.973 -8.074,0 0,-5.523 5.105,0 0,-14.356 4.903,0 0,-1.656 -4.903,0 0,-4.972 4.774,0 0,-6.625 -3.113,0 0,-2.211 -2.012,0 0,-4.297 11.199,0 0,4.297 2.008,0 0,2.211 3.113,0 0,6.625 -4.769,0 0,4.972 4.902,0 0,1.656 -4.902,0 0,13.606 10.25,-13.606 4.902,0 1.246,-1.656 -4.902,0 3.746,-4.972 4.769,0 4.993,-6.625 -3.114,0 1.664,-2.211 -2.007,0 3.238,-4.297 10.676,0 0,4.297 2.011,0 0,2.211 3.114,0 0,6.625 -4.774,0 0,4.972 4.903,0 0,1.656 -4.903,0 0,14.356 -5.105,0 0,5.523 8.074,0 0,4.973 -5.52,0 0,2.207 4.211,0 0,2.211 4.485,0 0,2.875 -11.121,0 0,-2.875 -4.489,0 0,-2.211 -4.211,0 0,-2.207 5.524,0 0,-4.973 -8.078,0 0,-5.523 5.109,0 0,-14.356 -1.031,0 -10.801,14.356 -5.109,0 -4.153,5.523 8.075,0 -3.739,4.973 -5.523,0 -1.66,2.207 4.211,0 -1.661,2.211 4.485,0 -2.16,2.875 -10.68,0 z m 106.813,0 0,-2.875 -4.485,0 0,-2.211 -4.211,0 0,-2.207 5.52,0 0,-2.644 15.797,0 0,-2.329 -8.079,0 0,-5.523 5.11,0 0,-14.356 4.902,0 0,-1.656 -4.902,0 0,-4.972 4.769,0 0,-6.625 -3.113,0 0,-2.211 -2.008,0 0,-4.297 11.715,0 0,4.297 2.008,0 0,2.211 3.113,0 0,6.625 -4.769,0 0,4.972 4.902,0 0,1.656 -4.902,0 0,14.356 -5.11,0 0,5.523 8.078,0 0,2.329 15.868,0 0,2.644 -5.524,0 0,2.207 4.211,0 0,2.211 4.488,0 0,2.875 -43.378,0 z m 245.48397,0 0,-2.875 -4.484,0 0,-2.211 -4.2109,0 0,-2.207 5.5189,0 0,-4.973 -8.074,0 0,-5.523 5.1051,0 0,-14.356 4.9029,0 0,-1.656 -4.9029,0 0,-4.972 4.774,0 0,-6.625 -3.1131,0 0,-2.211 -2.012,0 0,-4.297 40.34,0 0,4.297 2.0071,0 0,2.211 3.114,0 0,3.207 -28.6211,0 0,3.418 -4.77,0 0,4.972 4.8991,0 0,1.656 -4.8991,0 0,1.446 24.988,0 0,9.715 -24.988,0 0,3.195 -5.1089,0 0,5.523 8.078,0 0,2.551 27.8049,0 0,2.422 -5.524,0 0,2.207 4.2111,0 0,2.211 4.488,0 0,2.875 -39.5231,0 z m -157.4689,-7.293 4.3709,0 0,-4.973 -7.3509,0 3.586,4.407 c -0.192,0.195 -0.4111,0.371 -0.606,0.566 z m -118.44107,-2.125 c 3.297,0 6.351,-1.051 8.883,-2.848 l -8.079,0 c 1.985,-1.406 3.586,-3.316 4.77,-5.523 l 5.109,0 c 1.278,-2.383 2.071,-5.106 2.071,-8.09 0,-2.234 -0.426,-4.34 -1.161,-6.266 l 4.903,0 c -0.219,-0.582 -0.512,-1.113 -0.789,-1.656 l -4.903,0 c -0.988,-1.933 -2.312,-3.609 -3.914,-4.972 l 4.77,0 c -2.703,-2.297 -6.106,-3.715 -9.86,-3.715 -3.75,0 -7.207,1.418 -9.972,3.715 l -4.774,0 c -1.636,1.363 -3,3.039 -4.019,4.972 l 4.898,0 c -0.285,0.543 -0.586,1.074 -0.816,1.656 l -4.902,0 c -0.758,1.926 -1.2,4.032 -1.2,6.266 0,2.984 0.817,5.707 2.129,8.09 l -5.109,0 c 1.215,2.207 2.855,4.117 4.879,5.523 l 8.078,0 c 2.578,1.797 5.684,2.848 9.008,2.848 z m 188.19507,-0.297 10.824,0 c 3.4769,0 6.1249,-0.871 7.86,-2.551 l -8.0791,0 c 1.364,-1.32 2.1371,-3.16 2.25,-5.523 l 5.11,0 c 0.01,-0.203 0.051,-0.387 0.051,-0.602 0,-5.933 -3.711,-8.898 -10.161,-8.898 l -10.824,0 0,9.5 -5.109,0 0,5.523 8.078,0 0,2.551 z m -88.55507,-2.551 c 1.6531,-1.066 3.188,-2.41 4.508,-3.976 l 3.238,3.976 -7.746,0 z m 150.15997,0 c 1.418,-0.644 2.8291,-1.379 4.172,-2.195 l 1.024,2.195 -5.196,0 z m 93.622,0 c 1.418,-0.644 2.824,-1.379 4.168,-2.195 l 1.0231,2.195 -5.1911,0 z m -386.19197,-19.879 1.031,0 0,-1.371 -1.031,1.371 z"
         style="fill:#b34800;fill-opacity:1;fill-rule:nonzero;stroke:none"
         id="path64"
         inkscape:connector-curvature="0" /><path
         d="m 1129.1697,1066.1922 c -5.7109,0 -10.492,-1.391 -13.98,-3.836 l -4.484,0 c -0.954,-0.668 -1.8289,-1.391 -2.5709,-2.211 l -4.2111,0 c -0.6209,-0.684 -1.164,-1.422 -1.6249,-2.207 l 5.52,0 c -0.8791,-1.488 -1.4691,-3.152 -1.7351,-4.973 l -7.394,0 c -0.5269,1.856 -1.32,3.516 -2.3789,4.973 l -5.5231,0 c -0.586,0.805 -1.266,1.531 -2.008,2.207 l 4.2111,0 c -0.9181,0.836 -1.946,1.574 -3.094,2.211 l 4.488,0 c -3.394,1.879 -7.7691,2.875 -13.0431,2.875 l -22.5389,0 0,-2.875 -4.488,0 0,-2.211 -4.2111,0 0,-2.207 5.5231,0 0,-4.973 -7.4721,0 0,4.973 -5.524,0 0,2.207 4.211,0 0,2.211 4.4891,0 0,2.875 -11.7191,0 0,-2.875 -4.4849,0 0,-2.211 -4.2111,0 0,-2.207 5.52,0 0,-4.973 -8.074,0 0,-5.523 5.1091,0 0,-12.688 c 0,-0.585 -0.074,-1.121 -0.1291,-1.668 l 4.9031,0 c -0.055,-0.574 -0.1291,-1.128 -0.2391,-1.656 l -4.902,0 c -0.41,-1.976 -1.188,-3.64 -2.2889,-4.972 l 4.7729,0 c -1.964,-2.383 -4.902,-3.715 -8.5469,-3.715 -3.7071,0 -6.7341,1.343 -8.7771,3.715 l -4.7689,0 c -1.1491,1.336 -1.9691,3.003 -2.4031,4.972 l 4.9031,0 c -0.118,0.528 -0.196,1.082 -0.254,1.656 l -4.9031,0 c -0.054,0.547 -0.132,1.083 -0.132,1.668 l 0,12.688 -5.11,0 0,5.523 8.078,0 0,4.973 -5.5229,0 0,2.207 4.2109,0 0,2.211 4.488,0 0,2.875 -11.7149,0 0,-2.875 -4.488,0 0,-2.211 -4.21107,0 0,-2.207 -4.3709,0 c -0.8091,0.785 -1.672,1.52 -2.59,2.207 l 4.2109,0 c -1.07,0.805 -2.1909,1.555 -3.379,2.211 l 4.4881,0 c -4.254,2.34 -9.144,3.688 -13.89,3.688 -5.336,0 -10.2151,-1.348 -14.364,-3.688 l -4.4841,0 c -1.176,-0.664 -2.309,-1.391 -3.355,-2.211 l -4.211,0 c -0.871,-0.68 -1.68,-1.426 -2.453,-2.207 l 5.523,0 c -1.473,-1.492 -2.758,-3.16 -3.828,-4.973 l -8.078,0 c -1.02,-1.722 -1.864,-3.558 -2.469,-5.523 l 5.109,0 c -0.777,-2.512 -1.191,-5.199 -1.191,-8.016 0,-2.203 0.27,-4.316 0.73,-6.34 l 4.903,0 c 0.125,-0.558 0.25,-1.117 0.41,-1.656 l -4.899,0 c 0.512,-1.746 1.192,-3.41 2.024,-4.972 l 4.769,0 c 1.329,-2.489 3.055,-4.711 5.083,-6.625 l -3.114,0 c 0.844,-0.797 1.742,-1.532 2.688,-2.211 l -2.008,0 c 4.484,-3.223 10.066,-5.114 16.2731,-5.114 5.4569,0 11.098,1.914 15.8829,5.114 l 2.008,0 c 1.027,0.683 2.0231,1.41 2.9571,2.211 l 3.1129,0 c 0.75,0.636 1.4691,1.312 2.14507,2.019 l -4.23797,4.606 -4.77,0 -2.6561,2.882 c -1.071,-1.089 -2.2699,-2.046 -3.5279,-2.882 l 4.7699,0 c -3.1059,-2.055 -6.645,-3.27 -9.969,-3.27 -3.621,0 -6.8749,1.234 -9.504,3.27 l -4.769,0 c -1.723,1.332 -3.137,3.019 -4.196,4.972 l 4.903,0 c -0.297,0.543 -0.6169,1.071 -0.856,1.656 l -4.898,0 c -0.801,1.981 -1.242,4.168 -1.242,6.489 0,2.902 0.75,5.547 1.968,7.867 l -5.105,0 c 1.16,2.211 2.758,4.117 4.758,5.523 l 8.0741,0 c 2.5509,1.797 5.652,2.848 9.066,2.848 3.032,0 6.184,-1.031 8.9889,-2.848 l 7.015,0 0,-5.523 5.1101,0 0,-12.688 c 0,-0.57 0.039,-1.117 0.066,-1.668 l 4.90197,0 c 0.032,-0.562 0.079,-1.117 0.141,-1.656 l -4.89797,0 c 0.203,-1.765 0.57,-3.426 1.08897,-4.972 l 4.774,0 c 0.844,-2.516 2.086,-4.743 3.703,-6.625 l -3.113,0 c 0.687,-0.805 1.453,-1.532 2.269,-2.211 l -2.008,0 c 3.961,-3.289 9.379,-5.114 15.93,-5.114 6.52,0 11.891,1.825 15.805,5.114 l 2.008,0 c 0.808,0.679 1.562,1.406 2.242,2.211 l 3.113,0 c 1.602,1.882 2.824,4.109 3.656,6.625 l -4.769,0 c 0.515,1.546 0.879,3.207 1.078,4.972 l 4.902,0 c 0.063,0.539 0.106,1.094 0.137,1.656 l -4.898,0 c 0.031,0.551 0.066,1.098 0.066,1.668 l 0,12.688 -5.109,0 0,5.523 7.472,0 0,-5.523 5.11,0 0,-14.356 4.902,0 0,-1.656 -4.902,0 0,-4.972 4.769,0 0,-6.625 -3.113,0 0,-2.211 -2.008,0 0,-4.297 11.715,0 0,4.297 2.008,0 0,2.211 3.113,0 0,6.625 -4.769,0 0,1.695 11.937,0 0.941,-1.695 4.77,0 3.68,-6.625 -3.114,0 1.227,-2.211 -2.008,0 2.383,-4.297 13.273,0 -2.769,4.297 2.008,0 -1.426,2.211 3.113,0 -4.273,6.625 -4.77,0 -2.578,3.996 c 0.617,0.289 1.184,0.629 1.746,0.976 l 4.902,0 c 0.817,0.5 1.586,1.043 2.286,1.656 l -4.903,0 c 3.707,3.254 5.684,8.043 5.684,14.125 0,0.079 -0.01,0.153 -0.012,0.231 l -5.109,0 c -0.016,1.996 -0.27,3.84 -0.746,5.523 l 7.39,0 c -0.105,-0.734 -0.179,-1.484 -0.179,-2.269 0,-1.18 0.109,-2.258 0.316,-3.254 l 5.109,0 c 2.231,-10.738 15.688,-11.258 22.852,-14.356 l 4.902,0 c 1.086,-0.472 1.985,-1.023 2.719,-1.656 l -4.902,0 c 1.078,-0.929 1.769,-2.054 1.769,-3.574 0,-0.504 -0.09,-0.961 -0.218,-1.398 l 4.769,0 c -0.723,-2.442 -3.402,-3.789 -7.492,-3.789 -3.703,0 -8.344,1.406 -12.617,3.789 l -4.77,0 c -2.055,1.148 -4.039,2.503 -5.773,4.07 l -1.989,-4.07 4.77,0 -2.684,-5.497 c 0.461,-0.394 0.961,-0.757 1.453,-1.128 l -3.113,0 c 1.035,-0.786 2.113,-1.536 3.266,-2.211 l -2.008,0 c 5.297,-3.094 11.742,-4.965 18.191,-4.965 6.36,0 11.895,1.711 15.579,4.965 l 2.007,0 c 0.758,0.668 1.426,1.41 2.02,2.211 l 3.109,0 c 1.383,1.863 2.297,4.074 2.602,6.625 l -4.77,0 c 0.078,0.644 0.125,1.308 0.125,1.992 0,1.078 -0.105,2.054 -0.269,2.98 l 4.898,0 c -0.105,0.594 -0.285,1.117 -0.453,1.656 l -4.902,0 c -3.285,10.454 -17.879,10.555 -24.071,14.356 l -5.105,0 c -1.707,1.051 -2.789,2.375 -2.789,4.293 0,0.449 0.086,0.851 0.207,1.23 l 8.078,0 c 0.672,2.075 3.07,3.145 6.391,3.145 3.132,0 7.621,-1.149 11.992,-3.145 l 5.195,0 2.313,4.973 -5.524,0 1.031,2.207 4.211,0 0.157,0.34 c -1.028,0.676 -2.157,1.289 -3.332,1.871 l 4.488,0 c -4.758,2.344 -10.567,3.836 -16.395,3.836 z m 93.6211,0 c -5.714,0 -10.492,-1.391 -13.98,-3.836 l -4.4881,0 c -0.949,-0.668 -1.8279,-1.391 -2.571,-2.211 l -4.2109,0 c -0.6211,-0.684 -1.1601,-1.422 -1.6251,-2.207 l 5.524,0 c -0.8789,-1.488 -1.469,-3.152 -1.738,-4.973 l -8.0749,0 c -0.1091,-0.734 -0.1831,-1.484 -0.1831,-2.269 0,-1.18 0.113,-2.258 0.32,-3.254 l 5.106,0 c 2.234,-10.738 15.687,-11.258 22.8551,-14.356 l 4.8989,0 c 1.0851,-0.472 1.984,-1.023 2.718,-1.656 l -4.898,0 c 1.074,-0.929 1.7651,-2.054 1.7651,-3.574 0,-0.504 -0.085,-0.961 -0.214,-1.398 l 4.7689,0 c -0.726,-2.442 -3.406,-3.789 -7.496,-3.789 -3.7029,0 -8.344,1.406 -12.613,3.789 l -4.7699,0 c -2.058,1.148 -4.0391,2.503 -5.7771,4.07 l -1.988,-4.07 4.7731,0 -2.684,-5.497 c 0.4569,-0.394 0.9609,-0.757 1.45,-1.128 l -3.114,0 c 1.036,-0.786 2.114,-1.536 3.27,-2.211 l -2.0081,0 c 5.293,-3.094 11.7381,-4.965 18.191,-4.965 6.36,0 11.891,1.711 15.575,4.965 l 2.008,0 c 0.757,0.668 1.429,1.41 2.019,2.211 l 3.1131,0 c 1.3789,1.863 2.2929,4.074 2.6019,6.625 l -4.7739,0 c 0.079,0.644 0.1249,1.308 0.1249,1.992 0,1.078 -0.1049,2.054 -0.269,2.98 l 4.9021,0 c -0.1091,0.594 -0.2891,1.117 -0.4571,1.656 l -4.902,0 c -3.285,10.454 -17.875,10.555 -24.066,14.356 l -5.11,0 c -1.707,1.051 -2.7889,2.375 -2.7889,4.293 0,0.449 0.086,0.851 0.2069,1.23 l 8.078,0 c 0.672,2.075 3.071,3.145 6.3911,3.145 3.1369,0 7.6209,-1.149 11.9959,-3.145 l 5.191,0 2.317,4.973 -5.524,0 1.0281,2.207 4.2109,0 0.156,0.34 c -1.028,0.676 -2.156,1.289 -3.328,1.871 l 4.484,0 c -4.754,2.344 -10.566,3.836 -16.3909,3.836 z m -340.61707,-0.148 c -5.394,0 -10.328,-1.344 -14.511,-3.688 l -4.485,0 c -1.187,-0.664 -2.328,-1.387 -3.383,-2.211 l -4.211,0 c -0.875,-0.68 -1.683,-1.426 -2.46,-2.207 l 5.523,0 c -1.484,-1.492 -2.773,-3.156 -3.848,-4.973 l -8.078,0 c -1.019,-1.718 -1.867,-3.558 -2.476,-5.523 l 5.109,0 c -0.781,-2.527 -1.203,-5.242 -1.203,-8.09 0,-2.176 0.269,-4.266 0.734,-6.266 l 4.899,0 c 0.132,-0.558 0.261,-1.117 0.425,-1.656 l -4.902,0 c 0.524,-1.746 1.215,-3.41 2.067,-4.972 l 4.769,0 c 1.355,-2.489 3.117,-4.711 5.191,-6.625 l -3.113,0 c 0.867,-0.797 1.793,-1.532 2.762,-2.211 l -2.008,0 c 4.602,-3.223 10.332,-5.114 16.707,-5.114 6.359,0 12.078,1.895 16.672,5.114 l 2.012,0 c 0.968,0.679 1.894,1.414 2.758,2.211 l 3.113,0 c 2.078,1.914 3.847,4.136 5.207,6.625 l -4.77,0 c 0.856,1.562 1.551,3.226 2.074,4.972 l 4.903,0 c 0.164,0.539 0.293,1.098 0.426,1.656 l -4.903,0 c 0.465,2.004 0.739,4.09 0.739,6.266 0,2.844 -0.422,5.559 -1.211,8.09 l -5.106,0 c -0.613,1.965 -1.465,3.801 -2.492,5.523 l 8.078,0 c -1.082,1.813 -2.371,3.481 -3.855,4.973 l -5.524,0 c -0.773,0.781 -1.59,1.527 -2.465,2.207 l 4.211,0 c -1.054,0.82 -2.195,1.547 -3.379,2.211 l 4.489,0 c -4.18,2.34 -9.098,3.688 -14.485,3.688 z m -79.414,-0.813 0,-2.875 -4.484,0 0,-2.211 -4.211,0 0,-2.207 5.523,0 0,-4.973 -8.078,0 0,-5.523 5.11,0 0,-14.356 4.898,0 0,-1.656 -4.898,0 0,-4.972 4.769,0 0,-6.625 -3.113,0 0,-2.211 -2.012,0 0,-4.297 11.199,0 0,4.297 2.008,0 0,2.211 3.113,0 0,6.625 -4.769,0 0,4.972 4.902,0 0,1.656 -4.902,0 0,13.606 10.25,-13.606 4.902,0 1.246,-1.656 -4.898,0 3.742,-4.972 4.77,0 4.996,-6.625 -3.114,0 1.661,-2.211 -2.008,0 3.238,-4.297 10.676,0 0,4.297 2.012,0 0,2.211 3.113,0 0,6.625 -4.774,0 0,4.972 4.903,0 0,1.656 -4.903,0 0,14.356 -5.105,0 0,5.523 8.074,0 0,4.973 -5.519,0 0,2.207 4.211,0 0,2.211 4.484,0 0,2.875 -11.121,0 0,-2.875 -4.488,0 0,-2.211 -4.211,0 0,-2.207 5.523,0 0,-4.973 -8.078,0 0,-5.523 5.109,0 0,-14.356 -1.031,0 -10.801,14.356 -5.109,0 -4.152,5.523 8.078,0 -3.743,4.973 -5.519,0 -1.664,2.207 4.211,0 -1.66,2.211 4.484,0 -2.16,2.875 -10.68,0 z m 106.813,0 0,-2.875 -4.485,0 0,-2.211 -4.211,0 0,-2.207 5.524,0 0,-2.644 15.793,0 0,-2.329 -8.078,0 0,-5.523 5.109,0 0,-14.356 4.902,0 0,-1.656 -4.902,0 0,-4.972 4.77,0 0,-6.625 -3.114,0 0,-2.211 -2.007,0 0,-4.297 11.714,0 0,4.297 2.008,0 0,2.211 3.113,0 0,6.625 -4.769,0 0,4.972 4.902,0 0,1.656 -4.902,0 0,14.356 -5.109,0 0,5.523 8.078,0 0,2.329 15.867,0 0,2.644 -5.52,0 0,2.207 4.211,0 0,2.211 4.485,0 0,2.875 -43.379,0 z m 245.48397,0 0,-2.875 -4.4839,0 0,-2.211 -4.2111,0 0,-2.207 5.5191,0 0,-4.973 -8.0741,0 0,-5.523 5.109,0 0,-14.356 4.8991,0 0,-1.656 -4.8991,0 0,-4.972 4.77,0 0,-6.625 -3.113,0 0,-2.211 -2.0119,0 0,-4.297 40.34,0 0,4.297 2.008,0 0,2.211 3.1129,0 0,3.207 -28.6209,0 0,3.418 -4.77,0 0,4.972 4.9029,0 0,1.656 -4.9029,0 0,1.446 24.9889,0 0,9.715 -24.9889,0 0,3.195 -5.1091,0 0,5.523 8.078,0 0,2.551 27.805,0 0,2.422 -5.5239,0 0,2.207 4.2109,0 0,2.211 4.489,0 0,2.875 -39.524,0 z m -157.46897,-7.293 4.37107,0 0,-4.973 -7.35107,0 3.586,4.407 c -0.188,0.195 -0.41,0.371 -0.606,0.566 z m -118.441,-2.125 c 3.297,0 6.355,-1.051 8.883,-2.848 l -8.078,0 c 1.984,-1.406 3.586,-3.316 4.769,-5.523 l 5.11,0 c 1.277,-2.383 2.07,-5.106 2.07,-8.09 0,-2.234 -0.426,-4.34 -1.16,-6.266 l 4.902,0 c -0.219,-0.582 -0.512,-1.113 -0.789,-1.656 l -4.902,0 c -0.989,-1.933 -2.313,-3.609 -3.914,-4.972 l 4.769,0 c -2.703,-2.297 -6.105,-3.715 -9.859,-3.715 -3.75,0 -7.207,1.418 -9.973,3.715 l -4.773,0 c -1.637,1.363 -3,3.039 -4.02,4.972 l 4.899,0 c -0.286,0.543 -0.586,1.074 -0.817,1.656 l -4.898,0 c -0.762,1.926 -1.203,4.032 -1.203,6.266 0,2.984 0.816,5.707 2.128,8.09 l -5.109,0 c 1.215,2.207 2.856,4.117 4.879,5.523 l 8.078,0 c 2.578,1.797 5.684,2.848 9.008,2.848 z m 188.19497,-0.297 10.824,0 c 3.4771,0 6.1251,-0.871 7.86,-2.551 l -8.078,0 c 1.3631,-1.32 2.136,-3.16 2.25,-5.523 l 5.1091,0 c 0.01,-0.203 0.051,-0.387 0.051,-0.602 0,-5.933 -3.707,-8.898 -10.16,-8.898 l -10.824,0 0,9.5 -5.11,0 0,5.523 8.078,0 0,2.551 z m -88.55397,-2.551 c 1.656,-1.066 3.1871,-2.41 4.5071,-3.976 l 3.2389,3.976 -7.746,0 z m 150.15997,0 c 1.422,-0.644 2.828,-1.379 4.172,-2.195 l 1.0231,2.195 -5.1951,0 z m 93.6211,0 c 1.4179,-0.644 2.824,-1.379 4.172,-2.195 l 1.0189,2.195 -5.1909,0 z m -386.19207,-19.879 1.032,0 0,-1.371 -1.032,1.371 z"
         style="fill:#652900;fill-opacity:1;fill-rule:nonzero;stroke:none"
         id="path66"
         inkscape:connector-curvature="0" /><path
         d="m 1134.0727,1066.1922 c -5.711,0 -10.492,-1.391 -13.981,-3.836 l -4.488,0 c -0.949,-0.668 -1.828,-1.391 -2.57,-2.211 l -4.211,0 c -0.617,-0.684 -1.1599,-1.422 -1.625,-2.207 l 5.523,0 c -0.879,-1.488 -1.469,-3.152 -1.734,-4.973 l -7.395,0 c -0.527,1.856 -1.32,3.516 -2.3789,4.973 l -5.5231,0 c -0.586,0.805 -1.27,1.531 -2.012,2.207 l 4.211,0 c -0.9139,0.836 -1.945,1.574 -3.0899,2.211 l 4.4889,0 c -3.399,1.879 -7.77,2.875 -13.0429,2.875 l -22.5431,0 0,-2.875 -4.4849,0 0,-2.211 -4.2111,0 0,-2.207 5.52,0 0,-4.973 -7.473,0 0,4.973 -5.519,0 0,2.207 4.2111,0 0,2.211 4.484,0 0,2.875 -11.7151,0 0,-2.875 -4.488,0 0,-2.211 -4.211,0 0,-2.207 5.523,0 0,-4.973 -8.078,0 0,-5.523 5.11,0 0,-12.688 c 0,-0.585 -0.075,-1.121 -0.1249,-1.668 l 4.898,0 c -0.055,-0.574 -0.1251,-1.128 -0.234,-1.656 l -4.9031,0 c -0.41,-1.976 -1.191,-3.64 -2.2889,-4.972 l 4.77,0 c -1.9651,-2.383 -4.9031,-3.715 -8.5431,-3.715 -3.7069,0 -6.738,1.343 -8.778,3.715 l -4.769,0 c -1.149,1.336 -1.969,3.003 -2.4019,4.972 l 4.9019,0 c -0.117,0.528 -0.195,1.082 -0.2539,1.656 l -4.902,0 c -0.055,0.547 -0.1331,1.083 -0.1331,1.668 l 0,12.688 -5.11,0 0,5.523 8.0791,0 0,4.973 -5.524,0 0,2.207 4.2109,0 0,2.211 4.488,0 0,2.875 -11.718,0 0,-2.875 -4.4889,0 0,-2.211 -4.2111,0 0,-2.207 -4.37087,0 c -0.804,0.785 -1.672,1.52 -2.5891,2.207 l 4.21,0 c -1.07,0.805 -2.187,1.555 -3.3749,2.211 l 4.4849,0 c -4.25,2.34 -9.1409,3.688 -13.887,3.688 -5.3359,0 -10.219,-1.348 -14.363,-3.688 l -4.488,0 c -1.176,-0.664 -2.3089,-1.391 -3.356,-2.211 l -4.211,0 c -0.871,-0.68 -1.676,-1.426 -2.449,-2.207 l 5.523,0 c -1.476,-1.492 -2.757,-3.16 -3.832,-4.973 l -8.074,0 c -1.019,-1.722 -1.867,-3.558 -2.469,-5.523 l 5.106,0 c -0.774,-2.512 -1.192,-5.199 -1.192,-8.016 0,-2.203 0.27,-4.316 0.735,-6.34 l 4.898,0 c 0.129,-0.558 0.254,-1.117 0.414,-1.656 l -4.902,0 c 0.516,-1.746 1.195,-3.41 2.027,-4.972 l 4.77,0 c 1.328,-2.489 3.0511,-4.711 5.078,-6.625 l -3.113,0 c 0.843,-0.797 1.7461,-1.532 2.691,-2.211 l -2.008,0 c 4.4851,-3.223 10.0631,-5.114 16.274,-5.114 5.457,0 11.0931,1.914 15.882,5.114 l 2.008,0 c 1.024,0.683 2.02,1.41 2.9571,2.211 l 3.11397,0 c 0.746,0.636 1.464,1.312 2.144,2.019 l -4.242,4.606 -4.76997,0 -2.652,2.882 c -1.074,-1.089 -2.2691,-2.046 -3.5311,-2.882 l 4.7731,0 c -3.1051,-2.055 -6.644,-3.27 -9.968,-3.27 -3.6251,0 -6.8791,1.234 -9.508,3.27 l -4.77,0 c -1.7191,1.332 -3.1331,3.019 -4.1911,4.972 l 4.898,0 c -0.2929,0.543 -0.6169,1.071 -0.8509,1.656 l -4.9031,0 c -0.7969,1.981 -1.242,4.168 -1.242,6.489 0,2.902 0.75,5.547 1.9731,7.867 l -5.1101,0 c 1.164,2.211 2.7621,4.117 4.7581,5.523 l 8.078,0 c 2.5469,1.797 5.6529,2.848 9.0669,2.848 3.0311,0 6.1791,-1.031 8.988,-2.848 l 7.016,0 0,-5.523 5.10507,0 0,-12.688 c 0,-0.57 0.039,-1.117 0.07,-1.668 l 4.9029,0 c 0.031,-0.562 0.078,-1.117 0.14,-1.656 l -4.902,0 c 0.2031,-1.765 0.57,-3.426 1.094,-4.972 l 4.7691,0 c 0.848,-2.516 2.086,-4.743 3.7069,-6.625 l -3.113,0 c 0.6881,-0.805 1.453,-1.532 2.2701,-2.211 l -2.012,0 c 3.9609,-3.289 9.3789,-5.114 15.9329,-5.114 6.52,0 11.8871,1.825 15.8051,5.114 l 2.008,0 c 0.8089,0.679 1.5629,1.406 2.242,2.211 l 3.1129,0 c 1.602,1.882 2.8211,4.109 3.657,6.625 l -4.7699,0 c 0.512,1.546 0.8749,3.207 1.078,4.972 l 4.8989,0 c 0.062,0.539 0.1091,1.094 0.14,1.656 l -4.902,0 c 0.031,0.551 0.07,1.098 0.07,1.668 l 0,12.688 -5.1089,0 0,5.523 7.4729,0 0,-5.523 5.105,0 0,-14.356 4.9021,0 0,-1.656 -4.9021,0 0,-4.972 4.7741,0 0,-6.625 -3.114,0 0,-2.211 -2.0111,0 0,-4.297 11.718,0 0,4.297 2.008,0 0,2.211 3.1131,0 0,6.625 -4.7691,0 0,1.695 11.9371,0 0.942,-1.695 4.7689,0 3.68,-6.625 -3.1129,0 1.222,-2.211 -2.0071,0 2.386,-4.297 13.274,0 -2.774,4.297 2.012,0 -1.426,2.211 3.1131,0 -4.2771,6.625 -4.7689,0 -2.5751,3.996 c 0.618,0.289 1.184,0.629 1.746,0.976 l 4.8991,0 c 0.82,0.5 1.59,1.043 2.2849,1.656 l -4.898,0 c 3.7031,3.254 5.6791,8.043 5.6791,14.125 0,0.079 -0.01,0.153 -0.011,0.231 l -5.106,0 c -0.019,1.996 -0.269,3.84 -0.75,5.523 l 7.395,0 c -0.11,-0.734 -0.184,-1.484 -0.184,-2.269 0,-1.18 0.113,-2.258 0.32,-3.254 l 5.11,0 c 2.23,-10.738 15.683,-11.258 22.851,-14.356 l 4.903,0 c 1.086,-0.472 1.98,-1.023 2.715,-1.656 l -4.899,0 c 1.078,-0.929 1.766,-2.054 1.766,-3.574 0,-0.504 -0.086,-0.961 -0.215,-1.398 l 4.769,0 c -0.722,-2.442 -3.406,-3.789 -7.496,-3.789 -3.703,0 -8.34,1.406 -12.613,3.789 l -4.77,0 c -2.058,1.148 -4.039,2.503 -5.773,4.07 l -1.988,-4.07 4.769,0 -2.683,-5.497 c 0.457,-0.394 0.961,-0.757 1.453,-1.128 l -3.113,0 c 1.031,-0.786 2.109,-1.536 3.265,-2.211 l -2.008,0 c 5.293,-3.094 11.739,-4.965 18.192,-4.965 6.359,0 11.894,1.711 15.574,4.965 l 2.012,0 c 0.758,0.668 1.425,1.41 2.015,2.211 l 3.114,0 c 1.379,1.863 2.293,4.074 2.601,6.625 l -4.769,0 c 0.078,0.644 0.121,1.308 0.121,1.992 0,1.078 -0.106,2.054 -0.27,2.98 l 4.903,0 c -0.106,0.594 -0.29,1.117 -0.457,1.656 l -4.899,0 c -3.289,10.454 -17.879,10.555 -24.07,14.356 l -5.11,0 c -1.707,1.051 -2.789,2.375 -2.789,4.293 0,0.449 0.086,0.851 0.211,1.23 l 8.074,0 c 0.672,2.075 3.071,3.145 6.391,3.145 3.137,0 7.621,-1.149 11.996,-3.145 l 5.192,0 2.316,4.973 -5.523,0 1.027,2.207 4.211,0 0.16,0.34 c -1.031,0.676 -2.156,1.289 -3.332,1.871 l 4.488,0 c -4.758,2.344 -10.566,3.836 -16.394,3.836 z m 93.617,0 c -5.7109,0 -10.492,-1.391 -13.9809,-3.836 l -4.484,0 c -0.9491,-0.668 -1.828,-1.391 -2.57,-2.211 l -4.2111,0 c -0.6209,-0.684 -1.16,-1.422 -1.6249,-2.207 l 5.5189,0 c -0.8749,-1.488 -1.468,-3.152 -1.734,-4.973 l -8.078,0 c -0.106,-0.734 -0.18,-1.484 -0.18,-2.269 0,-1.18 0.11,-2.258 0.3171,-3.254 l 5.1089,0 c 2.23,-10.738 15.6871,-11.258 22.852,-14.356 l 4.902,0 c 1.086,-0.472 1.984,-1.023 2.7191,-1.656 l -4.9031,0 c 1.078,-0.929 1.77,-2.054 1.77,-3.574 0,-0.504 -0.09,-0.961 -0.2189,-1.398 l 4.77,0 c -0.7231,-2.442 -3.4031,-3.789 -7.4931,-3.789 -3.7029,0 -8.3429,1.406 -12.617,3.789 l -4.769,0 c -2.0589,1.148 -4.0389,2.503 -5.774,4.07 l -1.988,-4.07 4.7691,0 -2.6831,-5.497 c 0.4611,-0.394 0.965,-0.757 1.4531,-1.128 l -3.1131,0 c 1.0351,-0.786 2.1131,-1.536 3.265,-2.211 l -2.007,0 c 5.296,-3.094 11.742,-4.965 18.191,-4.965 6.359,0 11.8941,1.711 15.5781,4.965 l 2.0079,0 c 0.758,0.668 1.426,1.41 2.019,2.211 l 3.11,0 c 1.383,1.863 2.293,4.074 2.601,6.625 l -4.769,0 c 0.078,0.644 0.125,1.308 0.125,1.992 0,1.078 -0.106,2.054 -0.274,2.98 l 4.903,0 c -0.106,0.594 -0.285,1.117 -0.4569,1.656 l -4.8991,0 c -3.285,10.454 -17.879,10.555 -24.066,14.356 l -5.11,0 c -1.7069,1.051 -2.7889,2.375 -2.7889,4.293 0,0.449 0.082,0.851 0.2069,1.23 l 8.079,0 c 0.668,2.075 3.0701,3.145 6.39,3.145 3.133,0 7.621,-1.149 11.992,-3.145 l 5.1961,0 2.3119,4.973 -5.523,0 1.0311,2.207 4.2109,0 0.156,0.34 c -1.0269,0.676 -2.156,1.289 -3.332,1.871 l 4.488,0 c -4.7569,2.344 -10.566,3.836 -16.394,3.836 z m -340.61297,-0.148 c -5.399,0 -10.329,-1.344 -14.512,-3.688 l -4.488,0 c -1.184,-0.664 -2.329,-1.387 -3.383,-2.211 l -4.211,0 c -0.875,-0.68 -1.684,-1.426 -2.457,-2.207 l 5.519,0 c -1.48,-1.492 -2.769,-3.156 -3.847,-4.973 l -8.074,0 c -1.024,-1.718 -1.872,-3.558 -2.477,-5.523 l 5.109,0 c -0.785,-2.527 -1.203,-5.242 -1.203,-8.09 0,-2.176 0.27,-4.266 0.731,-6.266 l 4.902,0 c 0.129,-0.558 0.262,-1.117 0.422,-1.656 l -4.899,0 c 0.524,-1.746 1.215,-3.41 2.063,-4.972 l 4.773,0 c 1.356,-2.489 3.118,-4.711 5.192,-6.625 l -3.113,0 c 0.863,-0.797 1.789,-1.532 2.761,-2.211 l -2.011,0 c 4.601,-3.223 10.335,-5.114 16.707,-5.114 6.359,0 12.078,1.895 16.675,5.114 l 2.008,0 c 0.973,0.679 1.895,1.414 2.758,2.211 l 3.113,0 c 2.082,1.914 3.852,4.136 5.211,6.625 l -4.769,0 c 0.855,1.562 1.547,3.226 2.074,4.972 l 4.902,0 c 0.164,0.539 0.293,1.098 0.422,1.656 l -4.898,0 c 0.464,2.004 0.734,4.09 0.734,6.266 0,2.844 -0.418,5.559 -1.207,8.09 l -5.109,0 c -0.61,1.965 -1.461,3.801 -2.489,5.523 l 8.078,0 c -1.082,1.813 -2.371,3.481 -3.855,4.973 l -5.523,0 c -0.778,0.781 -1.59,1.527 -2.465,2.207 l 4.211,0 c -1.055,0.82 -2.196,1.547 -3.379,2.211 l 4.484,0 c -4.176,2.34 -9.098,3.688 -14.48,3.688 z m -79.414,-0.813 0,-2.875 -4.489,0 0,-2.211 -4.211,0 0,-2.207 5.524,0 0,-4.973 -8.078,0 0,-5.523 5.109,0 0,-14.356 4.902,0 0,-1.656 -4.902,0 0,-4.972 4.77,0 0,-6.625 -3.114,0 0,-2.211 -2.008,0 0,-4.297 11.196,0 0,4.297 2.012,0 0,2.211 3.113,0 0,6.625 -4.77,0 0,4.972 4.899,0 0,1.656 -4.899,0 0,13.606 10.25,-13.606 4.899,0 1.25,-1.656 -4.903,0 3.746,-4.972 4.77,0 4.992,-6.625 -3.113,0 1.664,-2.211 -2.008,0 3.238,-4.297 10.676,0 0,4.297 2.008,0 0,2.211 3.113,0 0,6.625 -4.769,0 0,4.972 4.902,0 0,1.656 -4.902,0 0,14.356 -5.11,0 0,5.523 8.078,0 0,4.973 -5.523,0 0,2.207 4.211,0 0,2.211 4.488,0 0,2.875 -11.121,0 0,-2.875 -4.488,0 0,-2.211 -4.211,0 0,-2.207 5.523,0 0,-4.973 -8.078,0 0,-5.523 5.11,0 0,-14.356 -1.032,0 -10.8,14.356 -5.11,0 -4.156,5.523 8.078,0 -3.738,4.973 -5.524,0 -1.66,2.207 4.211,0 -1.664,2.211 4.488,0 -2.164,2.875 -10.675,0 z m 106.812,0 0,-2.875 -4.488,0 0,-2.211 -4.211,0 0,-2.207 5.523,0 0,-2.644 15.797,0 0,-2.329 -8.078,0 0,-5.523 5.109,0 0,-14.356 4.899,0 0,-1.656 -4.899,0 0,-4.972 4.77,0 0,-6.625 -3.113,0 0,-2.211 -2.012,0 0,-4.297 11.719,0 0,4.297 2.007,0 0,2.211 3.114,0 0,6.625 -4.77,0 0,4.972 4.899,0 0,1.656 -4.899,0 0,14.356 -5.109,0 0,5.523 8.078,0 0,2.329 15.867,0 0,2.644 -5.523,0 0,2.207 4.211,0 0,2.211 4.488,0 0,2.875 -43.379,0 z m 245.48407,0 0,-2.875 -4.488,0 0,-2.211 -4.2111,0 0,-2.207 5.524,0 0,-4.973 -8.078,0 0,-5.523 5.1091,0 0,-14.356 4.902,0 0,-1.656 -4.902,0 0,-4.972 4.7689,0 0,-6.625 -3.1129,0 0,-2.211 -2.008,0 0,-4.297 40.336,0 0,4.297 2.012,0 0,2.211 3.1129,0 0,3.207 -28.6209,0 0,3.418 -4.7731,0 0,4.972 4.902,0 0,1.656 -4.902,0 0,1.446 24.992,0 0,9.715 -24.992,0 0,3.195 -5.106,0 0,5.523 8.074,0 0,2.551 27.8091,0 0,2.422 -5.5231,0 0,2.207 4.2111,0 0,2.211 4.488,0 0,2.875 -39.524,0 z m -157.472,-7.293 4.3709,0 0,-4.973 -7.34797,0 3.58597,4.407 c -0.1909,0.195 -0.41,0.371 -0.6089,0.566 z m -118.43807,-2.125 c 3.297,0 6.352,-1.051 8.883,-2.848 l -8.078,0 c 1.98,-1.406 3.582,-3.316 4.77,-5.523 l 5.105,0 c 1.281,-2.383 2.07,-5.106 2.07,-8.09 0,-2.234 -0.422,-4.34 -1.156,-6.266 l 4.902,0 c -0.222,-0.582 -0.511,-1.113 -0.789,-1.656 l -4.902,0 c -0.988,-1.933 -2.316,-3.609 -3.918,-4.972 l 4.773,0 c -2.707,-2.297 -6.105,-3.715 -9.859,-3.715 -3.754,0 -7.207,1.418 -9.976,3.715 l -4.77,0 c -1.637,1.363 -3,3.039 -4.023,4.972 l 4.902,0 c -0.289,0.543 -0.59,1.074 -0.817,1.656 l -4.902,0 c -0.758,1.926 -1.199,4.032 -1.199,6.266 0,2.984 0.812,5.707 2.129,8.09 l -5.11,0 c 1.215,2.207 2.856,4.117 4.879,5.523 l 8.075,0 c 2.582,1.797 5.683,2.848 9.011,2.848 z m 188.19607,-0.297 10.824,0 c 3.476,0 6.1249,-0.871 7.8549,-2.551 l -8.074,0 c 1.3591,-1.32 2.1331,-3.16 2.25,-5.523 l 5.106,0 c 0.011,-0.203 0.05,-0.387 0.05,-0.602 0,-5.933 -3.7069,-8.898 -10.156,-8.898 l -10.828,0 0,9.5 -5.106,0 0,5.523 8.0791,0 0,2.551 z m -88.55507,-2.551 c 1.652,-1.066 3.1871,-2.41 4.508,-3.976 l 3.234,3.976 -7.742,0 z m 150.15997,0 c 1.418,-0.644 2.828,-1.379 4.172,-2.195 l 1.0191,2.195 -5.1911,0 z m 93.6211,0 c 1.4179,-0.644 2.824,-1.379 4.1679,-2.195 l 1.0241,2.195 -5.192,0 z m -386.19507,-19.879 1.035,0 0,-1.371 -1.035,1.371 z"
         style="fill:#ff6600;fill-opacity:1;fill-rule:nonzero;stroke:none"
         id="path68"
         inkscape:connector-curvature="0" /></g></g></svg>